<svg xmlns="http://www.w3.org/2000/svg" version="1.1" xmlns:xlink="http://www.w3.org/1999/xlink" xmlns:svgjs="http://svgjs.com/svgjs" width="1440" height="560" preserveAspectRatio="none" viewBox="0 0 1440 560"><g mask="url(&quot;#SvgjsMask1003&quot;)" fill="none"><rect width="1440" height="560" x="0" y="0" fill="#0e2a47"></rect><path d="M539.4 331.43L575.73 331.43L575.73 367.76L539.4 367.76z" stroke="rgba(0, 0, 0, 1)"></path><path d="M117.41 187.22a8.66 8.66 0 1 0 9.19-14.68z" stroke="rgba(0, 0, 0, 1)"></path><path d="M447.18 521.75L483.93 521.75L483.93 558.5L447.18 558.5z" fill="rgba(255, 255, 255, 1)"></path><path d="M1194.51 418.21L1198.32 418.21L1198.32 422.02L1194.51 422.02z" fill="rgba(0, 217, 255, 1)"></path><path d="M21.69 366.92L66.7 366.92L66.7 382.36L21.69 382.36z" fill="rgba(0, 0, 0, 1)"></path><path d="M1009.99 60.08 a14.52 14.52 0 1 0 29.04 0 a14.52 14.52 0 1 0 -29.04 0z" fill="rgba(0, 0, 0, 1)"></path><path d="M1241.92 6.55a6.89 6.89 0 1 0-11.63 7.39z" fill="rgba(255, 255, 255, 1)"></path><path d="M746.66 107.94 a44.18 44.18 0 1 0 88.36 0 a44.18 44.18 0 1 0 -88.36 0z" stroke="rgba(255, 255, 255, 1)"></path><path d="M1204.35 294.32 a12.97 12.97 0 1 0 25.94 0 a12.97 12.97 0 1 0 -25.94 0z" fill="rgba(255, 255, 255, 1)"></path><path d="M542 321.56L595.4 321.56L595.4 374.96L542 374.96z" stroke="rgba(0, 217, 255, 1)"></path><path d="M1152.54 545.06 a19.1 19.1 0 1 0 38.2 0 a19.1 19.1 0 1 0 -38.2 0z" fill="rgba(0, 0, 0, 1)"></path><path d="M1326.33 533.76L1339.78 533.76L1339.78 547.21L1326.33 547.21z" fill="rgba(255, 255, 255, 1)"></path><path d="M390.83 517.36L445.35 517.36L445.35 571.88L390.83 571.88z" stroke="rgba(255, 255, 255, 1)"></path><path d="M474.32 453.52 a14.39 14.39 0 1 0 28.78 0 a14.39 14.39 0 1 0 -28.78 0z" fill="rgba(0, 0, 0, 1)"></path><path d="M342.98 318.28a22.02 22.02 0 1 0 25.02 36.24z" stroke="rgba(0, 0, 0, 1)"></path><path d="M710.39 12.22 a7.59 7.59 0 1 0 15.18 0 a7.59 7.59 0 1 0 -15.18 0z" fill="rgba(255, 255, 255, 1)"></path><path d="M1165.32 8.68L1174.12 8.68L1174.12 11.09L1165.32 11.09z" fill="rgba(255, 255, 255, 1)"></path><path d="M378.3 380.03L401.93 380.03L401.93 428L378.3 428z" stroke="rgba(255, 255, 255, 1)"></path><path d="M984.66 252.53 a14.19 14.19 0 1 0 28.38 0 a14.19 14.19 0 1 0 -28.38 0z" stroke="rgba(255, 255, 255, 1)"></path><path d="M629.38 80.17L655.13 80.17L655.13 105.92L629.38 105.92z" stroke="rgba(255, 255, 255, 1)"></path><path d="M1427.91 23.79L1434.6 23.79L1434.6 42.04L1427.91 42.04z" stroke="rgba(0, 0, 0, 1)"></path><path d="M438.43 519.16 a45.2 45.2 0 1 0 90.4 0 a45.2 45.2 0 1 0 -90.4 0z" fill="rgba(0, 217, 255, 1)"></path><path d="M1083.73 303.96L1112.47 303.96L1112.47 332.7L1083.73 332.7z" stroke="rgba(0, 0, 0, 1)"></path><path d="M268.74 200.79 a29.86 29.86 0 1 0 59.72 0 a29.86 29.86 0 1 0 -59.72 0z" stroke="rgba(0, 217, 255, 1)"></path><path d="M740.95 268.59 a27.67 27.67 0 1 0 55.34 0 a27.67 27.67 0 1 0 -55.34 0z" stroke="rgba(0, 217, 255, 1)"></path><path d="M745.97 439.59a1.58 1.58 0 1 0-0.88-3.03z" stroke="rgba(0, 217, 255, 1)"></path><path d="M360.07 49.54 a29.43 29.43 0 1 0 58.86 0 a29.43 29.43 0 1 0 -58.86 0z" stroke="rgba(0, 0, 0, 1)"></path><path d="M180.2 473.58 a8.19 8.19 0 1 0 16.38 0 a8.19 8.19 0 1 0 -16.38 0z" fill="rgba(255, 255, 255, 1)"></path><path d="M228.27 276.39 a24.75 24.75 0 1 0 49.5 0 a24.75 24.75 0 1 0 -49.5 0z" fill="rgba(0, 0, 0, 1)"></path><path d="M190.38 480.16L221.42 480.16L221.42 535.24L190.38 535.24z" stroke="rgba(0, 217, 255, 1)"></path><path d="M322.97 367.72L325.58 367.72L325.58 412.58L322.97 412.58z" fill="rgba(255, 255, 255, 1)"></path><path d="M111.38 46.39L113.49 46.39L113.49 77.21L111.38 77.21z" stroke="rgba(0, 217, 255, 1)"></path><path d="M1088.98 98.61L1134.68 98.61L1134.68 141.55L1088.98 141.55z" fill="rgba(0, 0, 0, 1)"></path></g><defs><mask id="SvgjsMask1003"><rect width="1440" height="560" fill="#ffffff"></rect></mask></defs></svg>