<svg xmlns="http://www.w3.org/2000/svg" version="1.1" xmlns:xlink="http://www.w3.org/1999/xlink" xmlns:svgjs="http://svgjs.com/svgjs" width="1440" height="560" preserveAspectRatio="none" viewBox="0 0 1440 560"><g mask="url(&quot;#SvgjsMask1030&quot;)" fill="none"><rect width="1440" height="560" x="0" y="0" fill="#0e2a47"></rect><path d="M1288 374L1287 101" stroke-width="8" stroke="url(#SvgjsLinearGradient1031)" stroke-linecap="round" class="Up"></path><path d="M392 87L391 257" stroke-width="8" stroke="url(#SvgjsLinearGradient1031)" stroke-linecap="round" class="Up"></path><path d="M794 258L793 108" stroke-width="6" stroke="url(#SvgjsLinearGradient1031)" stroke-linecap="round" class="Up"></path><path d="M696 7L695 293" stroke-width="10" stroke="url(#SvgjsLinearGradient1032)" stroke-linecap="round" class="Down"></path><path d="M823 393L822 710" stroke-width="6" stroke="url(#SvgjsLinearGradient1032)" stroke-linecap="round" class="Down"></path><path d="M618 333L617 181" stroke-width="10" stroke="url(#SvgjsLinearGradient1031)" stroke-linecap="round" class="Up"></path><path d="M1161 472L1160 173" stroke-width="10" stroke="url(#SvgjsLinearGradient1032)" stroke-linecap="round" class="Down"></path><path d="M963 162L962 -88" stroke-width="8" stroke="url(#SvgjsLinearGradient1031)" stroke-linecap="round" class="Up"></path><path d="M561 523L560 132" stroke-width="8" stroke="url(#SvgjsLinearGradient1031)" stroke-linecap="round" class="Up"></path><path d="M1254 488L1253 221" stroke-width="8" stroke="url(#SvgjsLinearGradient1032)" stroke-linecap="round" class="Down"></path><path d="M497 29L496 -346" stroke-width="10" stroke="url(#SvgjsLinearGradient1032)" stroke-linecap="round" class="Down"></path><path d="M297 372L296 -26" stroke-width="10" stroke="url(#SvgjsLinearGradient1032)" stroke-linecap="round" class="Down"></path><path d="M547 91L546 298" stroke-width="8" stroke="url(#SvgjsLinearGradient1031)" stroke-linecap="round" class="Up"></path><path d="M90 338L89 198" stroke-width="8" stroke="url(#SvgjsLinearGradient1032)" stroke-linecap="round" class="Down"></path><path d="M22 171L21 334" stroke-width="8" stroke="url(#SvgjsLinearGradient1031)" stroke-linecap="round" class="Up"></path><path d="M1273 353L1272 637" stroke-width="6" stroke="url(#SvgjsLinearGradient1031)" stroke-linecap="round" class="Up"></path><path d="M342 91L341 -269" stroke-width="10" stroke="url(#SvgjsLinearGradient1032)" stroke-linecap="round" class="Down"></path><path d="M1068 68L1067 -121" stroke-width="8" stroke="url(#SvgjsLinearGradient1032)" stroke-linecap="round" class="Down"></path><path d="M1429 554L1428 785" stroke-width="6" stroke="url(#SvgjsLinearGradient1032)" stroke-linecap="round" class="Down"></path><path d="M386 94L385 296" stroke-width="10" stroke="url(#SvgjsLinearGradient1032)" stroke-linecap="round" class="Down"></path><path d="M1134 29L1133 -234" stroke-width="8" stroke="url(#SvgjsLinearGradient1032)" stroke-linecap="round" class="Down"></path><path d="M791 314L790 547" stroke-width="6" stroke="url(#SvgjsLinearGradient1032)" stroke-linecap="round" class="Down"></path><path d="M438 426L437 697" stroke-width="6" stroke="url(#SvgjsLinearGradient1032)" stroke-linecap="round" class="Down"></path><path d="M1242 460L1241 94" stroke-width="6" stroke="url(#SvgjsLinearGradient1031)" stroke-linecap="round" class="Up"></path><path d="M1163 456L1162 825" stroke-width="8" stroke="url(#SvgjsLinearGradient1032)" stroke-linecap="round" class="Down"></path><path d="M500 352L499 75" stroke-width="8" stroke="url(#SvgjsLinearGradient1031)" stroke-linecap="round" class="Up"></path><path d="M820 480L819 687" stroke-width="8" stroke="url(#SvgjsLinearGradient1032)" stroke-linecap="round" class="Down"></path><path d="M817 268L816 112" stroke-width="6" stroke="url(#SvgjsLinearGradient1032)" stroke-linecap="round" class="Down"></path><path d="M1116 197L1115 518" stroke-width="6" stroke="url(#SvgjsLinearGradient1031)" stroke-linecap="round" class="Up"></path><path d="M1036 182L1035 -84" stroke-width="10" stroke="url(#SvgjsLinearGradient1032)" stroke-linecap="round" class="Down"></path><path d="M267 175L266 377" stroke-width="6" stroke="url(#SvgjsLinearGradient1031)" stroke-linecap="round" class="Up"></path><path d="M793 530L792 209" stroke-width="8" stroke="url(#SvgjsLinearGradient1032)" stroke-linecap="round" class="Down"></path><path d="M1269 156L1268 472" stroke-width="8" stroke="url(#SvgjsLinearGradient1032)" stroke-linecap="round" class="Down"></path><path d="M313 190L312 -230" stroke-width="6" stroke="url(#SvgjsLinearGradient1032)" stroke-linecap="round" class="Down"></path><path d="M855 101L854 508" stroke-width="6" stroke="url(#SvgjsLinearGradient1032)" stroke-linecap="round" class="Down"></path><path d="M631 404L630 550" stroke-width="10" stroke="url(#SvgjsLinearGradient1032)" stroke-linecap="round" class="Down"></path></g><defs><mask id="SvgjsMask1030"><rect width="1440" height="560" fill="#ffffff"></rect></mask><linearGradient x1="0%" y1="100%" x2="0%" y2="0%" id="SvgjsLinearGradient1031"><stop stop-color="rgba(0, 253, 161, 0)" offset="0"></stop><stop stop-color="rgba(0, 253, 161, 0.17)" offset="1"></stop></linearGradient><linearGradient x1="0%" y1="0%" x2="0%" y2="100%" id="SvgjsLinearGradient1032"><stop stop-color="rgba(0, 253, 161, 0)" offset="0"></stop><stop stop-color="rgba(0, 253, 161, 0.17)" offset="1"></stop></linearGradient></defs></svg>