<svg xmlns="http://www.w3.org/2000/svg" version="1.1" xmlns:xlink="http://www.w3.org/1999/xlink" xmlns:svgjs="http://svgjs.com/svgjs" width="1440" height="560" preserveAspectRatio="none" viewBox="0 0 1440 560"><g mask="url(&quot;#SvgjsMask1009&quot;)" fill="none"><rect width="1440" height="560" x="0" y="0" fill="#0e2a47"></rect><path d="M472 187L471 -194" stroke-width="6" stroke="url(#SvgjsLinearGradient1010)" stroke-linecap="round" class="Down"></path><path d="M1009 523L1008 206" stroke-width="8" stroke="url(#SvgjsLinearGradient1010)" stroke-linecap="round" class="Down"></path><path d="M722 552L721 736" stroke-width="10" stroke="url(#SvgjsLinearGradient1011)" stroke-linecap="round" class="Up"></path><path d="M193 295L192 464" stroke-width="10" stroke="url(#SvgjsLinearGradient1011)" stroke-linecap="round" class="Up"></path><path d="M659 1L658 153" stroke-width="6" stroke="url(#SvgjsLinearGradient1010)" stroke-linecap="round" class="Down"></path><path d="M1024 410L1023 69" stroke-width="6" stroke="url(#SvgjsLinearGradient1011)" stroke-linecap="round" class="Up"></path><path d="M574 271L573 -77" stroke-width="6" stroke="url(#SvgjsLinearGradient1010)" stroke-linecap="round" class="Down"></path><path d="M1075 45L1074 320" stroke-width="10" stroke="url(#SvgjsLinearGradient1010)" stroke-linecap="round" class="Down"></path><path d="M27 70L26 331" stroke-width="8" stroke="url(#SvgjsLinearGradient1010)" stroke-linecap="round" class="Down"></path><path d="M1006 236L1005 617" stroke-width="8" stroke="url(#SvgjsLinearGradient1011)" stroke-linecap="round" class="Up"></path><path d="M1140 201L1139 -132" stroke-width="10" stroke="url(#SvgjsLinearGradient1010)" stroke-linecap="round" class="Down"></path><path d="M173 294L172 563" stroke-width="6" stroke="url(#SvgjsLinearGradient1011)" stroke-linecap="round" class="Up"></path><path d="M273 514L272 859" stroke-width="6" stroke="url(#SvgjsLinearGradient1010)" stroke-linecap="round" class="Down"></path><path d="M880 523L879 351" stroke-width="8" stroke="url(#SvgjsLinearGradient1010)" stroke-linecap="round" class="Down"></path><path d="M495 467L494 729" stroke-width="6" stroke="url(#SvgjsLinearGradient1011)" stroke-linecap="round" class="Up"></path><path d="M1077 87L1076 322" stroke-width="6" stroke="url(#SvgjsLinearGradient1011)" stroke-linecap="round" class="Up"></path><path d="M1062 556L1061 343" stroke-width="6" stroke="url(#SvgjsLinearGradient1010)" stroke-linecap="round" class="Down"></path><path d="M1296 98L1295 377" stroke-width="8" stroke="url(#SvgjsLinearGradient1011)" stroke-linecap="round" class="Up"></path><path d="M706 129L705 -122" stroke-width="10" stroke="url(#SvgjsLinearGradient1010)" stroke-linecap="round" class="Down"></path><path d="M1005 26L1004 352" stroke-width="10" stroke="url(#SvgjsLinearGradient1010)" stroke-linecap="round" class="Down"></path><path d="M1108 99L1107 419" stroke-width="8" stroke="url(#SvgjsLinearGradient1010)" stroke-linecap="round" class="Down"></path><path d="M265 33L264 -287" stroke-width="10" stroke="url(#SvgjsLinearGradient1011)" stroke-linecap="round" class="Up"></path><path d="M187 164L186 -6" stroke-width="8" stroke="url(#SvgjsLinearGradient1011)" stroke-linecap="round" class="Up"></path><path d="M489 52L488 -175" stroke-width="6" stroke="url(#SvgjsLinearGradient1011)" stroke-linecap="round" class="Up"></path><path d="M1188 465L1187 635" stroke-width="8" stroke="url(#SvgjsLinearGradient1011)" stroke-linecap="round" class="Up"></path><path d="M1436 395L1435 100" stroke-width="6" stroke="url(#SvgjsLinearGradient1011)" stroke-linecap="round" class="Up"></path><path d="M98 378L97 39" stroke-width="8" stroke="url(#SvgjsLinearGradient1010)" stroke-linecap="round" class="Down"></path><path d="M1426 328L1425 584" stroke-width="10" stroke="url(#SvgjsLinearGradient1010)" stroke-linecap="round" class="Down"></path><path d="M1289 272L1288 43" stroke-width="6" stroke="url(#SvgjsLinearGradient1010)" stroke-linecap="round" class="Down"></path><path d="M192 255L191 -96" stroke-width="8" stroke="url(#SvgjsLinearGradient1011)" stroke-linecap="round" class="Up"></path><path d="M1087 493L1086 762" stroke-width="8" stroke="url(#SvgjsLinearGradient1010)" stroke-linecap="round" class="Down"></path><path d="M1038 104L1037 433" stroke-width="6" stroke="url(#SvgjsLinearGradient1010)" stroke-linecap="round" class="Down"></path><path d="M1343 448L1342 72" stroke-width="10" stroke="url(#SvgjsLinearGradient1010)" stroke-linecap="round" class="Down"></path><path d="M813 527L812 903" stroke-width="10" stroke="url(#SvgjsLinearGradient1011)" stroke-linecap="round" class="Up"></path><path d="M344 160L343 333" stroke-width="10" stroke="url(#SvgjsLinearGradient1011)" stroke-linecap="round" class="Up"></path><path d="M1317 390L1316 41" stroke-width="8" stroke="url(#SvgjsLinearGradient1011)" stroke-linecap="round" class="Up"></path></g><defs><mask id="SvgjsMask1009"><rect width="1440" height="560" fill="#ffffff"></rect></mask><linearGradient x1="0%" y1="0%" x2="0%" y2="100%" id="SvgjsLinearGradient1010"><stop stop-color="rgba(0, 255, 234, 0)" offset="0"></stop><stop stop-color="rgba(0, 255, 234, 0.45)" offset="1"></stop></linearGradient><linearGradient x1="0%" y1="100%" x2="0%" y2="0%" id="SvgjsLinearGradient1011"><stop stop-color="rgba(0, 255, 234, 0)" offset="0"></stop><stop stop-color="rgba(0, 255, 234, 0.45)" offset="1"></stop></linearGradient></defs></svg>